<svg width="320" height="220" viewBox="0 0 320 220" xmlns="http://www.w3.org/2000/svg"><rect width="320" height="220" fill="#EAF1F0"/><defs><linearGradient id="c" x1="0" y1="0" x2="0" y2="1"><stop offset="0" stop-color="#BFE0EA"/><stop offset="1" stop-color="#E6F1F0"/></linearGradient></defs><rect width="320" height="220" fill="url(#c)"/><path d="M0 168 Q70 132 170 140 Q250 134 320 162 L320 220 L0 220 Z" fill="#D2C29B"/><path d="M0 168 Q70 132 170 140 Q250 134 320 162" fill="none" stroke="#BCAA80" stroke-width="2"/><path d="M30 190 Q90 178 150 184 M180 196 Q240 188 300 196" stroke="#C2B187" stroke-width="2" fill="none"/><g fill="#EFE7D2" stroke="#CBBF9E" stroke-width="2"><path d="M104 100 L160 78 L216 100 Z"/><rect x="104" y="100" width="112" height="9"/><rect x="112" y="109" width="9" height="34"/><rect x="126" y="109" width="9" height="34"/><rect x="140" y="109" width="9" height="34"/><rect x="154" y="109" width="9" height="34"/><rect x="168" y="109" width="9" height="34"/><rect x="182" y="109" width="9" height="34"/><rect x="196" y="109" width="9" height="34"/><rect x="100" y="143" width="120" height="10"/></g><rect x="46" y="172" width="9" height="34" fill="#6E5836"/><g fill="#7E9A5A" stroke="#5E7340" stroke-width="2"><circle cx="50" cy="166" r="20"/><circle cx="34" cy="176" r="14"/><circle cx="66" cy="176" r="14"/><circle cx="50" cy="184" r="12"/></g></svg>