<svg width="320" height="220" viewBox="0 0 320 220" xmlns="http://www.w3.org/2000/svg"><rect width="320" height="220" fill="#EAF1F0"/><rect width="320" height="220" fill="#E7EEEC"/><rect x="0" y="150" width="320" height="70" fill="#D8CBA8"/><path d="M0 150 H320" stroke="#BBAA82" stroke-width="2"/><path d="M0 150 L-14 220" stroke="#BBAA82" stroke-width="1" opacity="0.4"/><path d="M40 150 L26 220" stroke="#BBAA82" stroke-width="1" opacity="0.4"/><path d="M80 150 L66 220" stroke="#BBAA82" stroke-width="1" opacity="0.4"/><path d="M120 150 L106 220" stroke="#BBAA82" stroke-width="1" opacity="0.4"/><path d="M160 150 L146 220" stroke="#BBAA82" stroke-width="1" opacity="0.4"/><path d="M200 150 L186 220" stroke="#BBAA82" stroke-width="1" opacity="0.4"/><path d="M240 150 L226 220" stroke="#BBAA82" stroke-width="1" opacity="0.4"/><path d="M280 150 L266 220" stroke="#BBAA82" stroke-width="1" opacity="0.4"/><rect x="40" y="146" width="240" height="8" fill="#C9C2B0"/><rect x="36" y="138" width="248" height="8" fill="#D9C79A"/><rect x="51.5" y="70" width="9" height="76" fill="#EDE8DC" stroke="#C9C2B0" stroke-width="1.5"/><line x1="54" y1="72" x2="54" y2="144" stroke="#D7D0BF" stroke-width="1"/><line x1="56" y1="72" x2="56" y2="144" stroke="#D7D0BF" stroke-width="1"/><line x1="58" y1="72" x2="58" y2="144" stroke="#D7D0BF" stroke-width="1"/><rect x="49.5" y="66" width="13" height="5" fill="#C9C2B0"/><rect x="81.5" y="70" width="9" height="76" fill="#EDE8DC" stroke="#C9C2B0" stroke-width="1.5"/><line x1="84" y1="72" x2="84" y2="144" stroke="#D7D0BF" stroke-width="1"/><line x1="86" y1="72" x2="86" y2="144" stroke="#D7D0BF" stroke-width="1"/><line x1="88" y1="72" x2="88" y2="144" stroke="#D7D0BF" stroke-width="1"/><rect x="79.5" y="66" width="13" height="5" fill="#C9C2B0"/><rect x="111.5" y="70" width="9" height="76" fill="#EDE8DC" stroke="#C9C2B0" stroke-width="1.5"/><line x1="114" y1="72" x2="114" y2="144" stroke="#D7D0BF" stroke-width="1"/><line x1="116" y1="72" x2="116" y2="144" stroke="#D7D0BF" stroke-width="1"/><line x1="118" y1="72" x2="118" y2="144" stroke="#D7D0BF" stroke-width="1"/><rect x="109.5" y="66" width="13" height="5" fill="#C9C2B0"/><rect x="141.5" y="70" width="9" height="76" fill="#EDE8DC" stroke="#C9C2B0" stroke-width="1.5"/><line x1="144" y1="72" x2="144" y2="144" stroke="#D7D0BF" stroke-width="1"/><line x1="146" y1="72" x2="146" y2="144" stroke="#D7D0BF" stroke-width="1"/><line x1="148" y1="72" x2="148" y2="144" stroke="#D7D0BF" stroke-width="1"/><rect x="139.5" y="66" width="13" height="5" fill="#C9C2B0"/><rect x="171.5" y="70" width="9" height="76" fill="#EDE8DC" stroke="#C9C2B0" stroke-width="1.5"/><line x1="174" y1="72" x2="174" y2="144" stroke="#D7D0BF" stroke-width="1"/><line x1="176" y1="72" x2="176" y2="144" stroke="#D7D0BF" stroke-width="1"/><line x1="178" y1="72" x2="178" y2="144" stroke="#D7D0BF" stroke-width="1"/><rect x="169.5" y="66" width="13" height="5" fill="#C9C2B0"/><rect x="201.5" y="70" width="9" height="76" fill="#EDE8DC" stroke="#C9C2B0" stroke-width="1.5"/><line x1="204" y1="72" x2="204" y2="144" stroke="#D7D0BF" stroke-width="1"/><line x1="206" y1="72" x2="206" y2="144" stroke="#D7D0BF" stroke-width="1"/><line x1="208" y1="72" x2="208" y2="144" stroke="#D7D0BF" stroke-width="1"/><rect x="199.5" y="66" width="13" height="5" fill="#C9C2B0"/><rect x="231.5" y="70" width="9" height="76" fill="#EDE8DC" stroke="#C9C2B0" stroke-width="1.5"/><line x1="234" y1="72" x2="234" y2="144" stroke="#D7D0BF" stroke-width="1"/><line x1="236" y1="72" x2="236" y2="144" stroke="#D7D0BF" stroke-width="1"/><line x1="238" y1="72" x2="238" y2="144" stroke="#D7D0BF" stroke-width="1"/><rect x="229.5" y="66" width="13" height="5" fill="#C9C2B0"/><rect x="261.5" y="70" width="9" height="76" fill="#EDE8DC" stroke="#C9C2B0" stroke-width="1.5"/><line x1="264" y1="72" x2="264" y2="144" stroke="#D7D0BF" stroke-width="1"/><line x1="266" y1="72" x2="266" y2="144" stroke="#D7D0BF" stroke-width="1"/><line x1="268" y1="72" x2="268" y2="144" stroke="#D7D0BF" stroke-width="1"/><rect x="259.5" y="66" width="13" height="5" fill="#C9C2B0"/><rect x="40" y="58" width="240" height="14" fill="#EDE8DC" stroke="#C9C2B0" stroke-width="1.5"/><path d="M34 58 L286 58 L260 38 L60 38 Z" fill="#D9C79A" stroke="#A6905E" stroke-width="2"/><path d="M60 38 L260 38 L256 33 L64 33 Z" fill="#A6905E"/><rect x="150" y="170" width="14" height="40" fill="#D7D0BF" stroke="#C9C2B0" stroke-width="1.5"/><circle cx="157" cy="166" r="9" fill="#EDE8DC" stroke="#C9C2B0" stroke-width="1.5"/><path d="M150 178 h14" stroke="#C9C2B0" stroke-width="1.5"/></svg>