<svg width="320" height="220" viewBox="0 0 320 220" xmlns="http://www.w3.org/2000/svg"><rect width="320" height="220" fill="#EAF1F0"/><rect width="320" height="220" fill="#D9E7EC"/><rect x="0" y="60" width="320" height="40" fill="#7FB6C4"/><path d="M0 70 Q40 66 80 70 T160 70 T240 70 T320 70" stroke="#9CC6D0" stroke-width="3" fill="none"/><rect x="0" y="100" width="320" height="120" fill="#D8CBA8"/><path d="M0 100 H320" stroke="#BBAA82" stroke-width="3"/><path d="M0 100 V220" stroke="#BBAA82" stroke-width="1.5"/><path d="M53 100 V220" stroke="#BBAA82" stroke-width="1.5"/><path d="M106 100 V220" stroke="#BBAA82" stroke-width="1.5"/><path d="M159 100 V220" stroke="#BBAA82" stroke-width="1.5"/><path d="M212 100 V220" stroke="#BBAA82" stroke-width="1.5"/><path d="M265 100 V220" stroke="#BBAA82" stroke-width="1.5"/><path d="M318 100 V220" stroke="#BBAA82" stroke-width="1.5"/><path d="M51.099999999999994 118 C46.89999999999999 160.0 46.89999999999999 183.10000000000002 70 193.60000000000002 C93.10000000000001 183.10000000000002 93.10000000000001 160.0 88.9 118 Z" fill="#C66A38" stroke="#9A4F28" stroke-width="2.5"/><rect x="62.65" y="101.2" width="14.700000000000001" height="18.900000000000002" rx="3" fill="#C66A38" stroke="#9A4F28" stroke-width="2.5"/><path d="M53.099999999999994 116 q-14 4 -10 22" fill="none" stroke="#9A4F28" stroke-width="4"/><path d="M86.9 116 q14 4 10 22" fill="none" stroke="#9A4F28" stroke-width="4"/><rect x="49.099999999999994" y="143.2" width="41.800000000000004" height="6.300000000000001" fill="#2B2118"/><path d="M105.6 128 C102.39999999999999 160.0 102.39999999999999 177.6 120 185.6 C137.6 177.6 137.6 160.0 134.4 128 Z" fill="#C66A38" stroke="#9A4F28" stroke-width="2.5"/><rect x="114.4" y="115.2" width="11.200000000000001" height="14.4" rx="3" fill="#C66A38" stroke="#9A4F28" stroke-width="2.5"/><path d="M107.6 126 q-14 4 -10 22" fill="none" stroke="#9A4F28" stroke-width="4"/><path d="M132.4 126 q14 4 10 22" fill="none" stroke="#9A4F28" stroke-width="4"/><rect x="103.6" y="147.2" width="32.8" height="4.800000000000001" fill="#2B2118"/><path d="M150.9 120 C147.1 158.0 147.1 178.9 168 188.39999999999998 C188.9 178.9 188.9 158.0 185.1 120 Z" fill="#C66A38" stroke="#9A4F28" stroke-width="2.5"/><rect x="161.35" y="104.8" width="13.299999999999999" height="17.099999999999998" rx="3" fill="#C66A38" stroke="#9A4F28" stroke-width="2.5"/><path d="M152.9 118 q-14 4 -10 22" fill="none" stroke="#9A4F28" stroke-width="4"/><path d="M183.1 118 q14 4 10 22" fill="none" stroke="#9A4F28" stroke-width="4"/><rect x="148.9" y="142.8" width="38.199999999999996" height="5.699999999999999" fill="#2B2118"/><path d="M236 196 q-8 -34 22 -34 q30 0 22 34 Z" fill="#B79A6A" stroke="#9A4F28" stroke-width="2.5"/><path d="M246 164 q12 -6 24 0" fill="none" stroke="#9A4F28" stroke-width="3"/><circle cx="232" cy="202" r="9" fill="#D6DDE2" stroke="#A4ADB4" stroke-width="2"/><circle cx="250" cy="206" r="9" fill="#D6DDE2" stroke="#A4ADB4" stroke-width="2"/><circle cx="268" cy="204" r="9" fill="#D6DDE2" stroke="#A4ADB4" stroke-width="2"/></svg>