<svg width="320" height="220" viewBox="0 0 320 220" xmlns="http://www.w3.org/2000/svg"><rect width="320" height="220" fill="#EAF1F0"/><defs><linearGradient id="sky" x1="0" y1="0" x2="0" y2="1"><stop offset="0" stop-color="#F3E7CC"/><stop offset="1" stop-color="#CFE4E4"/></linearGradient></defs><rect width="320" height="98" fill="url(#sky)"/><rect x="0" y="84" width="320" height="22" fill="#6FA9BC"/><path d="M0 90 q20 -4 40 0 t40 0 t40 0 t40 0 t40 0 t40 0 t40 0 t40 0" fill="none" stroke="#5C97AB" stroke-width="2.5"/><path d="M0 100 q20 -4 40 0 t40 0 t40 0 t40 0 t40 0 t40 0 t40 0 t40 0" fill="none" stroke="#8FC0CF" stroke-width="2" opacity="0.7"/><rect x="0" y="106" width="320" height="114" fill="#D8CBA8"/><path d="M0 106 H320" stroke="#BBAA82" stroke-width="3"/><path d="M0 150 H320 M0 188 H320" stroke="#BBAA82" stroke-width="1.5" opacity="0.6"/><path d="M70 106 V150" stroke="#BBAA82" stroke-width="1.5" opacity="0.5"/><path d="M150 106 V150" stroke="#BBAA82" stroke-width="1.5" opacity="0.5"/><path d="M232 106 V150" stroke="#BBAA82" stroke-width="1.5" opacity="0.5"/><path d="M300 106 V150" stroke="#BBAA82" stroke-width="1.5" opacity="0.5"/><rect x="34" y="96" width="6" height="86" fill="#7A5733"/><rect x="150" y="96" width="6" height="86" fill="#7A5733"/><path d="M22 96 L168 96 L160 74 L30 74 Z" fill="#F0E6CF" stroke="#5A3F22" stroke-width="2"/><path d="M30 96 L40 96 L38 74... " fill="none"/><path d="M70 96 L80 96 L78 74... " fill="none"/><path d="M110 96 L120 96 L118 74... " fill="none"/><path d="M150 96 L160 96 L158 74... " fill="none"/><polygon points="22.0,96 42.85714285714286,96 48.57142857142857,74 30.0,74" fill="#C66A38" stroke="none"/><polygon points="42.85714285714286,96 63.714285714285715,96 67.14285714285714,74 48.57142857142857,74" fill="#F0E6CF" stroke="none"/><polygon points="63.714285714285715,96 84.57142857142857,96 85.71428571428571,74 67.14285714285714,74" fill="#C66A38" stroke="none"/><polygon points="84.57142857142857,96 105.42857142857143,96 104.28571428571428,74 85.71428571428571,74" fill="#F0E6CF" stroke="none"/><polygon points="105.42857142857143,96 126.28571428571429,96 122.85714285714286,74 104.28571428571428,74" fill="#C66A38" stroke="none"/><polygon points="126.28571428571429,96 147.14285714285714,96 141.42857142857142,74 122.85714285714286,74" fill="#F0E6CF" stroke="none"/><polygon points="147.14285714285714,96 168.0,96 160.0,74 141.42857142857142,74" fill="#C66A38" stroke="none"/><path d="M22 96 L168 96 L160 74 L30 74 Z" fill="none" stroke="#5A3F22" stroke-width="2"/><path d="M57.0 120 C51.0 142.0 54.0 160.6 72 178.0 C90.0 160.6 93.0 142.0 87.0 120 Z" fill="#C66A38" stroke="#9A4F28" stroke-width="2.5"/><path d="M66.0 120 L64.0 104.0 L80.0 104.0 L78.0 120 Z" fill="#C66A38" stroke="#9A4F28" stroke-width="2.5"/><ellipse cx="72" cy="104.0" rx="9.0" ry="3.0" fill="#D98A55" stroke="#9A4F28" stroke-width="2"/><path d="M64.0 108.0 q-12 2 -9 18" fill="none" stroke="#9A4F28" stroke-width="4"/><path d="M80.0 108.0 q12 2 9 18" fill="none" stroke="#9A4F28" stroke-width="4"/><path d="M55.0 138.0 q17.0 8 34.0 0" fill="none" stroke="#2B2118" stroke-width="6"/><rect x="68.0" y="176.0" width="8.0" height="5.0" fill="#9A4F28"/><path d="M99.25 128 C94.15 146.7 96.7 162.51 112 177.3 C127.3 162.51 129.85 146.7 124.75 128 Z" fill="#C66A38" stroke="#9A4F28" stroke-width="2.5"/><path d="M106.9 128 L105.2 114.4 L118.8 114.4 L117.1 128 Z" fill="#C66A38" stroke="#9A4F28" stroke-width="2.5"/><ellipse cx="112" cy="114.4" rx="7.6499999999999995" ry="2.55" fill="#D98A55" stroke="#9A4F28" stroke-width="2"/><path d="M105.2 117.8 q-12 2 -9 18" fill="none" stroke="#9A4F28" stroke-width="4"/><path d="M118.8 117.8 q12 2 9 18" fill="none" stroke="#9A4F28" stroke-width="4"/><path d="M97.25 143.3 q14.75 8 29.5 0" fill="none" stroke="#2B2118" stroke-width="6"/><rect x="108.6" y="175.3" width="6.8" height="4.25" fill="#9A4F28"/><path d="M132 182 q-10 -30 20 -30 q30 0 20 30 Z" fill="#C9B083" stroke="#5A3F22" stroke-width="2.5"/><path d="M142 152 q10 -6 20 0" fill="none" stroke="#5A3F22" stroke-width="3"/><rect x="242" y="120" width="4" height="74" fill="#7A5733"/><rect x="222" y="186" width="44" height="8" rx="2" fill="#7A5733"/><path d="M210 124 H278" stroke="#7A5A18" stroke-width="4"/><circle cx="244" cy="120" r="4" fill="#B0843A"/><path d="M210 124 L200 146 M210 124 L220 146" stroke="#7A5A18" stroke-width="1.6"/><path d="M198 146 a12 6 0 0 0 24 0 Z" fill="#B0843A" stroke="#7A5A18" stroke-width="2"/><path d="M278 124 L268 146 M278 124 L288 146" stroke="#7A5A18" stroke-width="1.6"/><path d="M266 146 a12 6 0 0 0 24 0 Z" fill="#B0843A" stroke="#7A5A18" stroke-width="2"/><path d="M284.0 150 C279.2 167.6 281.6 182.48000000000002 296 196.4 C310.4 182.48000000000002 312.8 167.6 308.0 150 Z" fill="#C66A38" stroke="#9A4F28" stroke-width="2.5"/><path d="M291.2 150 L289.6 137.2 L302.4 137.2 L300.8 150 Z" fill="#C66A38" stroke="#9A4F28" stroke-width="2.5"/><ellipse cx="296" cy="137.2" rx="7.2" ry="2.4000000000000004" fill="#D98A55" stroke="#9A4F28" stroke-width="2"/><path d="M289.6 140.4 q-12 2 -9 18" fill="none" stroke="#9A4F28" stroke-width="4"/><path d="M302.4 140.4 q12 2 9 18" fill="none" stroke="#9A4F28" stroke-width="4"/><path d="M282.0 164.4 q14.0 8 28.0 0" fill="none" stroke="#2B2118" stroke-width="6"/><rect x="292.8" y="194.4" width="6.4" height="4.0" fill="#9A4F28"/><circle cx="212" cy="206" r="9" fill="#D6DDE2" stroke="#A4ADB4" stroke-width="2"/><circle cx="212" cy="206" r="4" fill="none" stroke="#A4ADB4" stroke-width="1.4"/><circle cx="228" cy="210" r="9" fill="#D6DDE2" stroke="#A4ADB4" stroke-width="2"/><circle cx="228" cy="210" r="4" fill="none" stroke="#A4ADB4" stroke-width="1.4"/><circle cx="244" cy="208" r="9" fill="#D6DDE2" stroke="#A4ADB4" stroke-width="2"/><circle cx="244" cy="208" r="4" fill="none" stroke="#A4ADB4" stroke-width="1.4"/></svg>