<svg width="320" height="220" viewBox="0 0 320 220" xmlns="http://www.w3.org/2000/svg"><rect width="320" height="220" fill="#EAF1F0"/><rect width="320" height="220" fill="#E9E2CF"/><rect x="0" y="170" width="320" height="50" fill="#D6C49A"/><circle cx="40" cy="120" r="20" fill="#1C5D7A" stroke="#13455B" stroke-width="3"/><circle cx="40" cy="120" r="7" fill="#C49A3A"/><path d="M40 100 L40 60" stroke="#6E5A30" stroke-width="3"/><circle cx="66" cy="120" r="20" fill="#1C5D7A" stroke="#13455B" stroke-width="3"/><circle cx="66" cy="120" r="7" fill="#C49A3A"/><path d="M66 100 L66 60" stroke="#6E5A30" stroke-width="3"/><circle cx="92" cy="120" r="20" fill="#1C5D7A" stroke="#13455B" stroke-width="3"/><circle cx="92" cy="120" r="7" fill="#C49A3A"/><path d="M92 100 L92 60" stroke="#6E5A30" stroke-width="3"/><circle cx="118" cy="120" r="20" fill="#1C5D7A" stroke="#13455B" stroke-width="3"/><circle cx="118" cy="120" r="7" fill="#C49A3A"/><path d="M118 100 L118 60" stroke="#6E5A30" stroke-width="3"/><circle cx="230" cy="120" r="11" fill="#3D6E73" stroke="#2A5055" stroke-width="2"/><path d="M240 105 Q254 120 240 135" fill="none" stroke="#6E2E64" stroke-width="3"/><circle cx="256" cy="120" r="11" fill="#3D6E73" stroke="#2A5055" stroke-width="2"/><path d="M266 105 Q280 120 266 135" fill="none" stroke="#6E2E64" stroke-width="3"/><circle cx="282" cy="120" r="11" fill="#3D6E73" stroke="#2A5055" stroke-width="2"/><path d="M292 105 Q306 120 292 135" fill="none" stroke="#6E2E64" stroke-width="3"/></svg>