<svg width="320" height="220" viewBox="0 0 320 220" xmlns="http://www.w3.org/2000/svg"><rect width="320" height="220" fill="#EAF1F0"/><rect width="320" height="220" fill="#CFE6EE"/><path d="M0 82 Q90 48 186 72 Q258 60 320 88 L320 220 L0 220 Z" fill="#C9A86A"/><path d="M0 118 Q80 104 160 114 Q240 106 320 120 L320 130 Q240 116 160 124 Q80 114 0 128 Z" fill="#BC9A55" opacity="0.6"/><path d="M0 82 Q90 48 186 72 Q258 60 320 88" fill="none" stroke="#A8884A" stroke-width="2"/><path d="M16 96 q10 -6 20 0 M250 92 q10 -5 20 1" stroke="#D8BC82" stroke-width="3" fill="none" opacity="0.7"/><circle cx="40" cy="200" r="5" fill="#A8884A"/><circle cx="58" cy="206" r="4" fill="#A8884A"/><circle cx="300" cy="206" r="5" fill="#A8884A"/><circle cx="286" cy="212" r="3" fill="#A8884A"/><path d="M150 188 V120 Q150 100 178 100 Q206 100 206 120 V188 Z" fill="#241E18"/><radialGradient id="g" cx="0.5" cy="0.7" r="0.7"><stop offset="0" stop-color="#6B4E2A"/><stop offset="1" stop-color="#241E18"/></radialGradient><path d="M156 186 V122 Q156 106 178 106 Q200 106 200 122 V186 Z" fill="url(#g)"/><path d="M146 120 Q146 96 178 96 Q210 96 210 120 L210 112 Q210 90 178 90 Q146 90 146 112 Z" fill="#7A5733" stroke="#5A3F22" stroke-width="2"/><rect x="142" y="112" width="12" height="78" fill="#7A5733" stroke="#5A3F22" stroke-width="2"/><rect x="202" y="112" width="12" height="78" fill="#7A5733" stroke="#5A3F22" stroke-width="2"/><rect x="158" y="140" width="40" height="6" fill="#946D3F" opacity="0.8"/><rect x="160" y="166" width="36" height="6" fill="#946D3F" opacity="0.6"/><path d="M162 182 L184 126 M172 184 L194 132" stroke="#D6DDE2" stroke-width="3" fill="none" opacity="0.9"/><path d="M178 150 l2 -5 l2 5 l5 2 l-5 2 l-2 5 l-2 -5 l-5 -2 Z" fill="#F2F6F8"/><g stroke="#3A2E26" stroke-width="3" stroke-linejoin="round" stroke-linecap="round"><path d="M86 190 C84 166 92 150 108 150 C120 150 128 160 130 178 L132 190 Z" fill="#9C7B4E"/><path d="M112 154 C126 156 132 168 132 190 L120 190 C120 170 118 160 112 156 Z" fill="#E8B68C"/><path d="M88 178 L92 190 L102 190 L100 176 Z" fill="#7C5F38"/><circle cx="104" cy="138" r="12" fill="#E8B68C"/><path d="M94 132 q10 -8 20 0" stroke="#3A2E26" stroke-width="3" fill="none"/><path d="M120 152 L150 120" stroke="#5A3F22" stroke-width="5"/><path d="M140 116 Q160 110 160 126 Q152 120 138 124 Z" fill="#BFC4C2" stroke="#3A2E26" stroke-width="2"/></g><ellipse cx="138" cy="196" rx="14" ry="7" fill="#F4C24A" opacity="0.35"/><path d="M130 192 q8 -6 16 0 q-2 5 -8 5 q-6 0 -8 -5 Z" fill="#946D3F" stroke="#5A3F22" stroke-width="1.5"/><path d="M146 191 q4 -1 5 1" stroke="#5A3F22" stroke-width="1.5" fill="none"/><path d="M134 190 q2 -6 2 -2 q0 -4 2 2 Z" fill="#F4C24A"/><path d="M236 192 q-6 18 12 18 h28 q18 0 12 -18 Z" fill="#946D3F" stroke="#5A3F22" stroke-width="2"/><path d="M238 198 H274" stroke="#5A3F22" stroke-width="1.5"/><path d="M238 206 H274" stroke="#5A3F22" stroke-width="1.5"/><circle cx="248" cy="188" r="8" fill="#D6DDE2" stroke="#A4ADB4" stroke-width="1.6"/><circle cx="246" cy="186" r="3" fill="#F2F6F8"/><circle cx="262" cy="186" r="9" fill="#D6DDE2" stroke="#A4ADB4" stroke-width="1.6"/><circle cx="260" cy="184" r="3" fill="#F2F6F8"/><circle cx="274" cy="190" r="7" fill="#D6DDE2" stroke="#A4ADB4" stroke-width="1.6"/><circle cx="272" cy="188" r="2" fill="#F2F6F8"/><path d="M206 200 L246 200 L241 212 L211 212 Z" fill="#D6DDE2" stroke="#A4ADB4" stroke-width="2"/><path d="M211 203 H240" stroke="#F2F6F8" stroke-width="2"/><path d="M214 188 L244 188 L239 200 L219 200 Z" fill="#D6DDE2" stroke="#A4ADB4" stroke-width="2"/><path d="M219 191 H238" stroke="#F2F6F8" stroke-width="2"/><circle cx="206" cy="208" r="9" fill="#D6DDE2" stroke="#A4ADB4" stroke-width="2"/><path d="M203 205 q3 -3 6 0 q-1 5 -3 5 q-2 0 -3 -5 Z" fill="#A4ADB4"/><circle cx="190" cy="212" r="8" fill="#D6DDE2" stroke="#A4ADB4" stroke-width="2"/></svg>