<svg width="320" height="220" viewBox="0 0 320 220" xmlns="http://www.w3.org/2000/svg"><rect width="320" height="220" fill="#EAF1F0"/><rect width="320" height="220" fill="#CFC7B4"/><rect x="0" y="120" width="320" height="100" fill="#5A5345"/><path d="M30 150 H290" stroke="#48422F" stroke-width="6"/><path d="M30 178 H290" stroke="#48422F" stroke-width="6"/><path d="M30 206 H290" stroke="#48422F" stroke-width="6"/><rect x="86" y="96" width="148" height="22" fill="#D8CBA8" stroke="#BBAA82" stroke-width="2"/><g stroke="#3A2E26" stroke-width="3" stroke-linejoin="round"><path d="M97.75999999999999 100.48 C97.75999999999999 67.36 106.96 60 118 60 C129.04 60 138.24 67.36 138.24 100.48 Z" fill="#F0E8D8"/><path d="M97.75999999999999 100.48 C99.6 72.88 138.24 69.2 138.24 100.48" fill="none" stroke="#C49A3A" stroke-width="4"/><circle cx="118" cy="48.96" r="11.96" fill="#E8B68C"/><path d="M106.03999999999999 45.28 q11.96 -9.200000000000001 23.92 0" stroke="#3A2E26" stroke-width="3" fill="none"/></g><g stroke="#3A2E26" stroke-width="3" stroke-linejoin="round"><path d="M138.0 98.0 C138.0 62.0 148.0 54 160 54 C172.0 54 182.0 62.0 182.0 98.0 Z" fill="#F0E8D8"/><path d="M138.0 98.0 C140.0 68.0 182.0 64.0 182.0 98.0" fill="none" stroke="#C49A3A" stroke-width="4"/><circle cx="160" cy="42.0" r="13.0" fill="#E8B68C"/><path d="M147.0 38.0 q13.0 -10.0 26.0 0" stroke="#3A2E26" stroke-width="3" fill="none"/></g><g stroke="#3A2E26" stroke-width="3" stroke-linejoin="round"><path d="M181.76 100.48 C181.76 67.36 190.96 60 202 60 C213.04 60 222.24 67.36 222.24 100.48 Z" fill="#F0E8D8"/><path d="M181.76 100.48 C183.6 72.88 222.24 69.2 222.24 100.48" fill="none" stroke="#C49A3A" stroke-width="4"/><circle cx="202" cy="48.96" r="11.96" fill="#E8B68C"/><path d="M190.04 45.28 q11.96 -9.200000000000001 23.92 0" stroke="#3A2E26" stroke-width="3" fill="none"/></g></svg>