<svg width="320" height="220" viewBox="0 0 320 220" xmlns="http://www.w3.org/2000/svg"><rect width="320" height="220" fill="#EAF1F0"/><rect width="320" height="220" fill="#EDE6D6"/><rect x="0" y="158" width="320" height="62" fill="#E2D8C0"/><path d="M0 158 H320" stroke="#CBBF9E" stroke-width="2"/><g transform="translate(104 116) rotate(-6)"><polygon points="-44,-2 -30,-30 8,-34 40,-14 46,18 18,40 -22,38 -46,16" fill="#C66A38" stroke="#9A4F28" stroke-width="3" stroke-linejoin="round"/><polyline points="-42,1 -28,-27 10,-31" fill="none" stroke="#D98A55" stroke-width="2" opacity="0.7"/><path d="M-44 -2 L-30 -30 L8 -34 L40 -14 L36 -2 L-44 6 Z" fill="#2B2118" opacity="0.85"/><path d="M-26 6 L-26 28 M-26 6 L-12 6 M-26 17 L-14 17" stroke="#2B2118" stroke-width="2.2" fill="none" stroke-linecap="round"/><path d="M-2 4 L8 28 L18 4 M2 18 L14 18" stroke="#2B2118" stroke-width="2.2" fill="none" stroke-linecap="round"/><path d="M22 6 L22 28 M22 6 L34 12 L22 18" stroke="#2B2118" stroke-width="2.2" fill="none" stroke-linecap="round"/></g><g transform="translate(212 140) rotate(10)"><polygon points="-38,-6 -14,-26 22,-22 40,2 28,30 -6,34 -34,18" fill="#C66A38" stroke="#9A4F28" stroke-width="3" stroke-linejoin="round"/><polyline points="-36,-3 -12,-23 24,-19" fill="none" stroke="#D98A55" stroke-width="2" opacity="0.7"/><path d="M22 -22 L40 2 L30 14 L8 -10 Z" fill="#2B2118" opacity="0.85"/><path d="M-22 -4 L-22 18 M-22 -4 L-10 -4 M-22 7 L-12 7" stroke="#2B2118" stroke-width="2.2" fill="none" stroke-linecap="round"/><path d="M-2 -6 L-2 18 M-12 -6 L8 -6" stroke="#2B2118" stroke-width="2.2" fill="none" stroke-linecap="round"/></g><g transform="translate(156 180) rotate(-3)"><polygon points="-22,-4 -6,-18 18,-12 22,8 2,20 -20,12" fill="#C66A38" stroke="#9A4F28" stroke-width="3" stroke-linejoin="round"/><polyline points="-20,-1 -4,-15 20,-9" fill="none" stroke="#D98A55" stroke-width="2" opacity="0.7"/><path d="M-8 -6 L-8 10 M-8 -6 L4 -6 L4 10" stroke="#2B2118" stroke-width="2.2" fill="none" stroke-linecap="round"/></g><g transform="translate(268 184) rotate(14)"><polygon points="-20,-2 -4,-16 16,-8 18,10 -2,18 -20,10" fill="#C66A38" stroke="#9A4F28" stroke-width="3" stroke-linejoin="round"/><polyline points="-18,1 -2,-13 18,-5" fill="none" stroke="#D98A55" stroke-width="2" opacity="0.7"/><path d="M-6 -6 L-6 10 M-12 0 L0 0" stroke="#2B2118" stroke-width="2.2" fill="none" stroke-linecap="round"/></g></svg>