<svg width="320" height="220" viewBox="0 0 320 220" xmlns="http://www.w3.org/2000/svg"><rect width="320" height="220" fill="#EAF1F0"/><rect width="320" height="220" fill="#EDE6D6"/><rect x="0" y="150" width="320" height="70" fill="#E0D6BE"/><path d="M0 150 H320" stroke="#CBBF9E" stroke-width="2"/><g transform="rotate(-8 96 120)"><path d="M56 120 Q56 80 96 80 Q136 80 136 120 Q132 140.0 96 144.0 Q60 140.0 56 120 Z" fill="#C66A38" stroke="#9A4F28" stroke-width="2.5"/><path d="M56 120 Q56 80 96 80 Q136 80 136 120 Q132 140.0 96 144.0 Q60 140.0 56 120 Z" fill="none" stroke="#A8542B" stroke-width="1" opacity="0.5"/><path d="M80 114 L94 114" stroke="#2B2118" stroke-width="2"/><path d="M80 122 L90 122" stroke="#2B2118" stroke-width="2"/><path d="M98 112 L98 128" stroke="#2B2118" stroke-width="2"/><path d="M104 114 L112 122" stroke="#2B2118" stroke-width="2"/></g><g transform="rotate(10 196 140)"><path d="M150 140 Q150 94 196 94 Q242 94 242 140 Q238 163.0 196 167.6 Q154 163.0 150 140 Z" fill="#C66A38" stroke="#9A4F28" stroke-width="2.5"/><path d="M150 140 Q150 94 196 94 Q242 94 242 140 Q238 163.0 196 167.6 Q154 163.0 150 140 Z" fill="none" stroke="#A8542B" stroke-width="1" opacity="0.5"/><path d="M176 136 L192 136" stroke="#2B2118" stroke-width="2"/><path d="M192 130 L192 148" stroke="#2B2118" stroke-width="2"/><path d="M200 132 L212 138" stroke="#2B2118" stroke-width="2"/><path d="M202 144 L214 144" stroke="#2B2118" stroke-width="2"/></g><g transform="rotate(-4 150 176)"><path d="M120 176 Q120 146 150 146 Q180 146 180 176 Q176 191.0 150 194.0 Q124 191.0 120 176 Z" fill="#C66A38" stroke="#9A4F28" stroke-width="2.5"/><path d="M120 176 Q120 146 150 146 Q180 146 180 176 Q176 191.0 150 194.0 Q124 191.0 120 176 Z" fill="none" stroke="#A8542B" stroke-width="1" opacity="0.5"/><path d="M140 172 L154 172" stroke="#2B2118" stroke-width="2"/><path d="M148 168 L148 182" stroke="#2B2118" stroke-width="2"/></g><g transform="rotate(14 252 176)"><path d="M226 176 Q226 150 252 150 Q278 150 278 176 Q274 189.0 252 191.6 Q230 189.0 226 176 Z" fill="#C66A38" stroke="#9A4F28" stroke-width="2.5"/><path d="M226 176 Q226 150 252 150 Q278 150 278 176 Q274 189.0 252 191.6 Q230 189.0 226 176 Z" fill="none" stroke="#A8542B" stroke-width="1" opacity="0.5"/><path d="M244 174 L258 174" stroke="#2B2118" stroke-width="2"/><path d="M252 168 L252 182" stroke="#2B2118" stroke-width="2"/></g></svg>