<svg width="320" height="220" viewBox="0 0 320 220" xmlns="http://www.w3.org/2000/svg"><rect width="320" height="220" fill="#EAF1F0"/><rect width="320" height="220" fill="#EAF1F0"/><rect x="0" y="170" width="320" height="50" fill="#E7DBC2"/><rect x="138" y="120" width="44" height="50" fill="#E0D4B6" stroke="#C7B991" stroke-width="2"/><circle cx="160" cy="100" r="13" fill="#E8B68C" stroke="#3A2E26" stroke-width="2"/><path d="M148 118 Q160 112 172 118 L176 150 L144 150 Z" fill="#F0E8D8" stroke="#1C5D7A" stroke-width="2"/><path d="M172 116 L196 96" stroke="#3A2E26" stroke-width="3"/><circle cx="30" cy="178" r="9" fill="#E8B68C" stroke="#3A2E26" stroke-width="1.5"/><path d="M30 165 L30 150" stroke="#3A2E26" stroke-width="2.5"/><circle cx="64" cy="178" r="9" fill="#E8B68C" stroke="#3A2E26" stroke-width="1.5"/><path d="M64 165 L64 150" stroke="#3A2E26" stroke-width="2.5"/><circle cx="98" cy="178" r="9" fill="#E8B68C" stroke="#3A2E26" stroke-width="1.5"/><path d="M98 165 L98 150" stroke="#3A2E26" stroke-width="2.5"/><circle cx="132" cy="178" r="9" fill="#E8B68C" stroke="#3A2E26" stroke-width="1.5"/><path d="M132 165 L132 150" stroke="#3A2E26" stroke-width="2.5"/><circle cx="166" cy="178" r="9" fill="#E8B68C" stroke="#3A2E26" stroke-width="1.5"/><path d="M166 165 L166 150" stroke="#3A2E26" stroke-width="2.5"/><circle cx="200" cy="178" r="9" fill="#E8B68C" stroke="#3A2E26" stroke-width="1.5"/><path d="M200 165 L200 150" stroke="#3A2E26" stroke-width="2.5"/><circle cx="234" cy="178" r="9" fill="#E8B68C" stroke="#3A2E26" stroke-width="1.5"/><path d="M234 165 L234 150" stroke="#3A2E26" stroke-width="2.5"/><circle cx="268" cy="178" r="9" fill="#E8B68C" stroke="#3A2E26" stroke-width="1.5"/><path d="M268 165 L268 150" stroke="#3A2E26" stroke-width="2.5"/></svg>