<svg width="320" height="220" viewBox="0 0 320 220" xmlns="http://www.w3.org/2000/svg"><rect width="320" height="220" fill="#EAF1F0"/><rect width="320" height="220" fill="#CFE6EE"/><rect x="232" y="92" width="88" height="40" fill="#6FA9BC"/><path d="M232 104 q12 -4 22 0 t22 0 t22 0 t22 0" fill="none" stroke="#5C97AB" stroke-width="2"/><path d="M0 132 H320 L320 220 L0 220 Z" fill="#D8CBA8"/><path d="M0 132 H320" stroke="#BBAA82" stroke-width="2"/><path d="M8 96 Q40 78 78 96 L78 110 L8 110 Z" fill="#BFC58C"/><rect x="24" y="80" width="40" height="20" fill="#EDE8DC" stroke="#C9C2B0" stroke-width="1.5"/><rect x="28" y="82" width="3" height="16" fill="#D7D0BF"/><rect x="40" y="82" width="3" height="16" fill="#D7D0BF"/><rect x="52" y="82" width="3" height="16" fill="#D7D0BF"/><rect x="60" y="82" width="3" height="16" fill="#D7D0BF"/><path d="M22 80 L66 80 L60 72 L28 72 Z" fill="#C9C2B0"/><path d="M0 150 L300 120 L300 132 L0 168 Z" fill="#CBB68A" stroke="#A6905E" stroke-width="2"/><path d="M0 196 L300 150 L300 168 L0 214 Z" fill="#D9C79A" stroke="#A6905E" stroke-width="2"/><rect x="6" y="188" width="8" height="8" fill="#D9C79A" stroke="#A6905E" stroke-width="1.2"/><rect x="22" y="186" width="8" height="8" fill="#D9C79A" stroke="#A6905E" stroke-width="1.2"/><rect x="38" y="183" width="8" height="8" fill="#D9C79A" stroke="#A6905E" stroke-width="1.2"/><rect x="54" y="181" width="8" height="8" fill="#D9C79A" stroke="#A6905E" stroke-width="1.2"/><rect x="70" y="178" width="8" height="8" fill="#D9C79A" stroke="#A6905E" stroke-width="1.2"/><rect x="86" y="176" width="8" height="8" fill="#D9C79A" stroke="#A6905E" stroke-width="1.2"/><rect x="102" y="173" width="8" height="8" fill="#D9C79A" stroke="#A6905E" stroke-width="1.2"/><rect x="118" y="171" width="8" height="8" fill="#D9C79A" stroke="#A6905E" stroke-width="1.2"/><rect x="134" y="168" width="8" height="8" fill="#D9C79A" stroke="#A6905E" stroke-width="1.2"/><rect x="150" y="166" width="8" height="8" fill="#D9C79A" stroke="#A6905E" stroke-width="1.2"/><rect x="166" y="164" width="8" height="8" fill="#D9C79A" stroke="#A6905E" stroke-width="1.2"/><rect x="182" y="161" width="8" height="8" fill="#D9C79A" stroke="#A6905E" stroke-width="1.2"/><rect x="198" y="159" width="8" height="8" fill="#D9C79A" stroke="#A6905E" stroke-width="1.2"/><rect x="214" y="156" width="8" height="8" fill="#D9C79A" stroke="#A6905E" stroke-width="1.2"/><rect x="230" y="154" width="8" height="8" fill="#D9C79A" stroke="#A6905E" stroke-width="1.2"/><rect x="246" y="151" width="8" height="8" fill="#D9C79A" stroke="#A6905E" stroke-width="1.2"/><rect x="262" y="149" width="8" height="8" fill="#D9C79A" stroke="#A6905E" stroke-width="1.2"/><rect x="278" y="146" width="8" height="8" fill="#D9C79A" stroke="#A6905E" stroke-width="1.2"/><rect x="30" y="150" width="30" height="52" fill="#D9C79A" stroke="#A6905E" stroke-width="2"/><rect x="32" y="142" width="7" height="8" fill="#CBB68A" stroke="#A6905E" stroke-width="1.5"/><rect x="43" y="142" width="7" height="8" fill="#CBB68A" stroke="#A6905E" stroke-width="1.5"/><rect x="40" y="173" width="9" height="21" fill="#B09A66"/><rect x="150" y="134" width="30" height="44" fill="#D9C79A" stroke="#A6905E" stroke-width="2"/><rect x="152" y="126" width="7" height="8" fill="#CBB68A" stroke="#A6905E" stroke-width="1.5"/><rect x="163" y="126" width="7" height="8" fill="#CBB68A" stroke="#A6905E" stroke-width="1.5"/><rect x="160" y="154" width="9" height="18" fill="#B09A66"/><rect x="250" y="120" width="28" height="38" fill="#D9C79A" stroke="#A6905E" stroke-width="2"/><rect x="252" y="112" width="7" height="8" fill="#CBB68A" stroke="#A6905E" stroke-width="1.5"/><rect x="263" y="112" width="7" height="8" fill="#CBB68A" stroke="#A6905E" stroke-width="1.5"/><rect x="260" y="137" width="8" height="15" fill="#B09A66"/><path d="M38 202 v-16 a8 8 0 0 1 16 0 v16 Z" fill="#B09A66"/></svg>