<svg width="320" height="220" viewBox="0 0 320 220" xmlns="http://www.w3.org/2000/svg"><rect width="320" height="220" fill="#EAF1F0"/><rect width="320" height="220" fill="#EDE8DC"/><rect x="0" y="168" width="320" height="52" fill="#DFD7C4"/><path d="M0 168 H320" stroke="#C7BCA1" stroke-width="2"/><rect x="120" y="158" width="60" height="14" fill="#D9C79A" stroke="#A6905E" stroke-width="2"/><rect x="128" y="148" width="44" height="12" fill="#C9C2B0"/><path d="M130 158 C130 96 138 78 150 78 C162 78 170 96 170 158 Z" fill="#EDE8DC" stroke="#C9C2B0" stroke-width="2"/><path d="M140 96 Q137 130 140 156" stroke="#D7D0BF" stroke-width="2" fill="none"/><path d="M150 96 Q147 130 150 156" stroke="#D7D0BF" stroke-width="2" fill="none"/><path d="M160 96 Q157 130 160 156" stroke="#D7D0BF" stroke-width="2" fill="none"/><circle cx="150" cy="64" r="13" fill="#EDE8DC" stroke="#C9C2B0" stroke-width="2"/><path d="M137 60 q13 -12 26 0" fill="#C9C2B0"/><path d="M130 100 L120 132 M170 100 L180 130" stroke="#EDE8DC" stroke-width="9" stroke-linecap="round"/><path d="M40 210 L40 176 L92 168 L92 204 Z" fill="#D7D0BF" stroke="#C9C2B0" stroke-width="2"/><path d="M52 176 L52 200 M64 173 L64 198" stroke="#C9C2B0" stroke-width="1.5"/><path d="M70 176 l10 -12 l6 4 l-10 12 Z" fill="#9AA0A0" stroke="#3A2E26" stroke-width="1.5"/><rect x="246" y="196" width="34" height="14" rx="3" fill="#7A5733" stroke="#5A3F22" stroke-width="2"/><rect x="262" y="200" width="38" height="6" rx="2" fill="#5A3F22"/><circle cx="110" cy="206" r="3" fill="#D7D0BF"/><circle cx="120" cy="212" r="3" fill="#D7D0BF"/><circle cx="132" cy="208" r="3" fill="#D7D0BF"/><circle cx="210" cy="210" r="3" fill="#D7D0BF"/></svg>