<svg width="320" height="220" viewBox="0 0 320 220" xmlns="http://www.w3.org/2000/svg"><rect width="320" height="220" fill="#EAF1F0"/><rect width="320" height="220" fill="#BFE0EA"/><rect x="0" y="150" width="320" height="70" fill="#7FB6C4"/><path d="M58 150 Q54 122 80 120 L244 120 Q270 122 266 150 Z" fill="#8A5A2B" stroke="#5E3D1C" stroke-width="3"/><path d="M262 124 Q298 112 286 78 Q281 96 268 104" fill="none" stroke="#5E3D1C" stroke-width="6" stroke-linecap="round"/><path d="M60 138 L26 150 L60 150 Z" fill="#B0843A" stroke="#5E3D1C" stroke-width="2.5"/><circle cx="78" cy="134" r="8" fill="#fff" stroke="#3A2E26" stroke-width="2"/><circle cx="76" cy="134" r="3" fill="#1C5D7A"/><path d="M86 150 L75 182" stroke="#5E3D1C" stroke-width="3" stroke-linecap="round"/><path d="M102 150 L91 182" stroke="#5E3D1C" stroke-width="3" stroke-linecap="round"/><path d="M118 150 L107 182" stroke="#5E3D1C" stroke-width="3" stroke-linecap="round"/><path d="M134 150 L123 182" stroke="#5E3D1C" stroke-width="3" stroke-linecap="round"/><path d="M150 150 L139 182" stroke="#5E3D1C" stroke-width="3" stroke-linecap="round"/><path d="M166 150 L155 182" stroke="#5E3D1C" stroke-width="3" stroke-linecap="round"/><path d="M182 150 L171 182" stroke="#5E3D1C" stroke-width="3" stroke-linecap="round"/><path d="M198 150 L187 182" stroke="#5E3D1C" stroke-width="3" stroke-linecap="round"/><path d="M214 150 L203 182" stroke="#5E3D1C" stroke-width="3" stroke-linecap="round"/><path d="M230 150 L219 182" stroke="#5E3D1C" stroke-width="3" stroke-linecap="round"/><path d="M246 150 L235 182" stroke="#5E3D1C" stroke-width="3" stroke-linecap="round"/><rect x="159" y="44" width="6" height="78" fill="#5E3D1C"/><path d="M104 52 L220 52 L212 112 L112 112 Z" fill="#F0E8D8" stroke="#CBBF9E" stroke-width="2"/><path d="M126 52 L124 112 M152 52 L151 112 M178 52 L178 112 M204 52 L206 112" stroke="#1C5D7A" stroke-width="2"/></svg>