<svg width="400" height="440" viewBox="0 0 400 440" xmlns="http://www.w3.org/2000/svg"><g stroke="#3A2E26" stroke-width="5" stroke-linejoin="round" stroke-linecap="round"><path d="M70 440 C70 352 120 324 200 324 C280 324 330 352 330 440 Z" fill="#9C7B4E"/><path d="M214 330 C266 332 306 356 326 410 C320 426 312 434 306 440 L250 440 C250 392 236 354 214 332 Z" fill="#E3A878"/><path d="M90 408 Q200 426 286 408" fill="none" stroke="#7C5F38" stroke-width="6"/><path d="M120 360 Q170 374 206 360" fill="none" stroke="#7C5F38" stroke-width="4"/><path d="M176 274 L176 326 Q200 340 224 326 L224 274 Z" fill="#E3A878"/><path d="M176 300 Q200 318 224 300 L224 326 Q200 340 176 326 Z" fill="#D99C6E" stroke="none" opacity="0.6"/><ellipse cx="200" cy="190" rx="80" ry="92" fill="#E8B68C"/><path d="M200 100 C250 104 280 150 280 190 C280 245 245 280 200 282 C235 270 258 230 258 188 C258 145 235 108 200 100 Z" fill="#D99C6E" stroke="none" opacity="0.5"/><path d="M129 179 C107 180 103 207 122 213 C125 208 124 196 127 188 C127 184 128 181 129 179 Z" fill="#E8B68C" stroke="none"/><path d="M271 179 C293 180 297 207 278 213 C275 208 276 196 273 188 C273 184 272 181 271 179 Z" fill="#E3A878" stroke="none"/><path d="M129 180 C108 182 105 206 122 212" fill="none" stroke="#3A2E26" stroke-width="4.5"/><path d="M271 180 C292 182 295 206 278 212" fill="none" stroke="#3A2E26" stroke-width="4.5"/><path d="M120 178 C112 95 158 66 200 66 C242 66 288 95 280 178 C280 150 270 138 256 136 C250 150 240 150 232 140 C224 152 210 152 200 142 C190 152 176 152 168 140 C160 150 150 150 144 136 C130 138 120 150 120 178 Z" fill="#4A3A2A"/><path d="M120 178 C112 110 140 80 175 70 C150 90 134 130 134 175 Z" fill="#3A2D20" stroke="none"/><path d="M150 92 l8 -14 M180 78 l4 -14 M222 78 l-2 -14 M252 92 l-8 -14" stroke="#3A2D20" stroke-width="4" fill="none"/><path d="M158 248 C170 268 230 268 242 248 C232 280 168 280 158 248 Z" fill="#4A3A2A" stroke="none" opacity="0.7"/><path d="M150 166 Q170 150 190 156" fill="none" stroke="#3A2E26" stroke-width="6"/><path d="M210 156 Q230 150 250 166" fill="none" stroke="#3A2E26" stroke-width="6"/><ellipse cx="168" cy="180" rx="15" ry="12.5" fill="#fff"/><circle cx="171" cy="182" r="6.5" fill="#3A2E26" stroke="none"/><circle cx="173" cy="180" r="2" fill="#fff" stroke="none"/><ellipse cx="232" cy="180" rx="15" ry="12.5" fill="#fff"/><circle cx="229" cy="182" r="6.5" fill="#3A2E26" stroke="none"/><circle cx="231" cy="180" r="2" fill="#fff" stroke="none"/><path d="M198 184 C196 200 190 212 188 218 Q200 226 210 216" fill="none" stroke="#3A2E26" stroke-width="4.5"/><path d="M182 252 Q200 246 218 252" fill="none" stroke="#3A2E26" stroke-width="5"/></g></svg>