<svg width="400" height="440" viewBox="0 0 400 440" xmlns="http://www.w3.org/2000/svg"><g stroke="#3A2E26" stroke-width="5" stroke-linejoin="round" stroke-linecap="round"><path d="M64 440 C64 348 116 320 200 320 C284 320 336 348 336 440 Z" fill="#3D6E73"/><path d="M64 440 C66 366 116 340 200 340 C284 340 334 366 336 440" fill="none" stroke="#2A5055" stroke-width="5"/><rect x="188" y="330" width="24" height="110" fill="#C49A3A"/><rect x="194" y="330" width="12" height="110" fill="#6E2E64"/><circle cx="110" cy="372" r="3.4" fill="#C49A3A"/><circle cx="110" cy="402" r="3.4" fill="#C49A3A"/><circle cx="110" cy="432" r="3.4" fill="#C49A3A"/><circle cx="150" cy="372" r="3.4" fill="#C49A3A"/><circle cx="150" cy="402" r="3.4" fill="#C49A3A"/><circle cx="150" cy="432" r="3.4" fill="#C49A3A"/><circle cx="250" cy="372" r="3.4" fill="#C49A3A"/><circle cx="250" cy="402" r="3.4" fill="#C49A3A"/><circle cx="250" cy="432" r="3.4" fill="#C49A3A"/><circle cx="290" cy="372" r="3.4" fill="#C49A3A"/><circle cx="290" cy="402" r="3.4" fill="#C49A3A"/><circle cx="290" cy="432" r="3.4" fill="#C49A3A"/><path d="M150 352 Q200 368 250 352" fill="none" stroke="#8F6E22" stroke-width="3"/><path d="M176 274 L176 326 Q200 340 224 326 L224 274 Z" fill="#E3A878"/><path d="M176 300 Q200 318 224 300 L224 326 Q200 340 176 326 Z" fill="#D99C6E" stroke="none" opacity="0.6"/><ellipse cx="200" cy="190" rx="80" ry="92" fill="#E8B68C"/><path d="M200 100 C250 104 280 150 280 190 C280 245 245 280 200 282 C235 270 258 230 258 188 C258 145 235 108 200 100 Z" fill="#D99C6E" stroke="none" opacity="0.5"/><path d="M129 179 C107 180 103 207 122 213 C125 208 124 196 127 188 C127 184 128 181 129 179 Z" fill="#E8B68C" stroke="none"/><path d="M271 179 C293 180 297 207 278 213 C275 208 276 196 273 188 C273 184 272 181 271 179 Z" fill="#E3A878" stroke="none"/><path d="M129 180 C108 182 105 206 122 212" fill="none" stroke="#3A2E26" stroke-width="4.5"/><path d="M271 180 C292 182 295 206 278 212" fill="none" stroke="#3A2E26" stroke-width="4.5"/><path d="M120 178 C112 95 158 66 200 66 C242 66 288 95 280 178 C280 150 270 138 256 136 C250 150 240 150 232 140 C224 152 210 152 200 142 C190 152 176 152 168 140 C160 150 150 150 144 136 C130 138 120 150 120 178 Z" fill="#4A3A2A"/><path d="M120 178 C112 110 140 80 175 70 C150 90 134 130 134 175 Z" fill="#3A2D20" stroke="none"/><path d="M134 110 C134 60 150 40 200 40 C250 40 266 60 266 110 Z" fill="#6E2E64"/><path d="M134 110 C134 60 150 40 200 40 C250 40 266 60 266 110" fill="none" stroke="#C49A3A" stroke-width="4"/><path d="M138 96 H262" stroke="#C49A3A" stroke-width="6"/><path d="M150 72 H250" stroke="#C49A3A" stroke-width="4"/><circle cx="168" cy="58" r="3.5" fill="#C49A3A"/><circle cx="200" cy="58" r="3.5" fill="#C49A3A"/><circle cx="232" cy="58" r="3.5" fill="#C49A3A"/><path d="M140 208 C140 250 150 264 150 264 L150 336 C150 348 250 348 250 336 L250 264 C250 264 260 250 260 208 C254 248 230 264 200 264 C170 264 146 248 140 208 Z" fill="#4A3A2A" stroke="#3A2E26" stroke-width="4"/><path d="M150 276 Q200 292 250 276" fill="none" stroke="#3A2E26" stroke-width="2.5"/><path d="M150 300 Q200 316 250 300" fill="none" stroke="#3A2E26" stroke-width="2.5"/><path d="M150 324 Q200 340 250 324" fill="none" stroke="#3A2E26" stroke-width="2.5"/><path d="M150 166 Q170 150 190 156" fill="none" stroke="#3A2E26" stroke-width="6"/><path d="M210 156 Q230 150 250 166" fill="none" stroke="#3A2E26" stroke-width="6"/><ellipse cx="168" cy="180" rx="15" ry="12.5" fill="#fff"/><circle cx="171" cy="182" r="6.5" fill="#3A2E26" stroke="none"/><circle cx="173" cy="180" r="2" fill="#fff" stroke="none"/><ellipse cx="232" cy="180" rx="15" ry="12.5" fill="#fff"/><circle cx="229" cy="182" r="6.5" fill="#3A2E26" stroke="none"/><circle cx="231" cy="180" r="2" fill="#fff" stroke="none"/><path d="M198 184 C196 200 190 212 188 218 Q200 226 210 216" fill="none" stroke="#3A2E26" stroke-width="4.5"/><path d="M182 252 Q200 246 218 252" fill="none" stroke="#3A2E26" stroke-width="5"/></g></svg>