<svg width="400" height="440" viewBox="0 0 400 440" xmlns="http://www.w3.org/2000/svg"><g stroke="#3A2E26" stroke-width="5" stroke-linejoin="round" stroke-linecap="round"><path d="M64 440 C64 348 120 322 200 322 C280 322 336 348 336 440 Z" fill="#CBBFA2"/><path d="M235 336 C302 338 324 372 332 432 C302 412 272 398 247 394 Z" fill="#9E3B2E"/><path d="M245 348 C295 354 316 384 322 428" fill="none" stroke="#7C2A20" stroke-width="3"/><path d="M86 404 Q180 420 232 404" fill="none" stroke="#A99A78" stroke-width="5"/><path d="M176 274 L176 326 Q200 340 224 326 L224 274 Z" fill="#E3A878"/><path d="M176 300 Q200 318 224 300 L224 326 Q200 340 176 326 Z" fill="#D99C6E" stroke="none" opacity="0.6"/><ellipse cx="200" cy="190" rx="80" ry="92" fill="#E8B68C"/><path d="M200 100 C250 104 280 150 280 190 C280 245 245 280 200 282 C235 270 258 230 258 188 C258 145 235 108 200 100 Z" fill="#D99C6E" stroke="none" opacity="0.5"/><path d="M129 179 C107 180 103 207 122 213 C125 208 124 196 127 188 C127 184 128 181 129 179 Z" fill="#E8B68C" stroke="none"/><path d="M271 179 C293 180 297 207 278 213 C275 208 276 196 273 188 C273 184 272 181 271 179 Z" fill="#E3A878" stroke="none"/><path d="M129 180 C108 182 105 206 122 212" fill="none" stroke="#3A2E26" stroke-width="4.5"/><path d="M271 180 C292 182 295 206 278 212" fill="none" stroke="#3A2E26" stroke-width="4.5"/><path d="M120 178 C112 95 158 66 200 66 C242 66 288 95 280 178 C280 150 270 138 256 136 C250 150 240 150 232 140 C224 152 210 152 200 142 C190 152 176 152 168 140 C160 150 150 150 144 136 C130 138 120 150 120 178 Z" fill="#4A3A2A"/><path d="M120 178 C112 110 140 80 175 70 C150 90 134 130 134 175 Z" fill="#3A2D20" stroke="none"/><path d="M120 176 C112 220 116 268 126 300 L150 300 C138 262 134 214 134 176 Z" fill="#4A3A2A"/><path d="M280 176 C288 220 284 268 274 300 L250 300 C262 262 266 214 266 176 Z" fill="#4A3A2A"/><path d="M126 132 C126 64 162 42 200 42 C238 42 274 64 274 132 C274 116 262 108 244 108 L156 108 C138 108 126 116 126 132 Z" fill="#C2A85A"/><path d="M126 132 C126 96 150 78 200 78 C250 78 274 96 274 132" fill="none" stroke="#8A7330" stroke-width="3"/><rect x="150" y="116" width="100" height="14" rx="6" fill="#C2A85A" stroke="#8A7330" stroke-width="2"/><path d="M190 42 C190 14 210 14 210 42 Z" fill="#9E3B2E"/><rect x="194" y="22" width="12" height="64" fill="#9E3B2E"/><path d="M188 86 C188 40 212 40 212 86" fill="#9E3B2E"/><path d="M134 206 C134 296 168 348 200 348 C232 348 266 296 266 206 C258 250 230 264 200 264 C170 264 142 250 134 206 Z" fill="#4A3A2A" stroke="#3A2E26" stroke-width="4"/><path d="M172 250 C184 262 216 262 228 250" fill="none" stroke="#3A2E26" stroke-width="2.5"/><path d="M150 162 Q170 153 188 160" fill="none" stroke="#3A2E26" stroke-width="6"/><path d="M212 160 Q230 153 250 162" fill="none" stroke="#3A2E26" stroke-width="6"/><ellipse cx="168" cy="180" rx="15" ry="12.5" fill="#fff"/><circle cx="171" cy="182" r="6.5" fill="#3A2E26" stroke="none"/><circle cx="173" cy="180" r="2" fill="#fff" stroke="none"/><ellipse cx="232" cy="180" rx="15" ry="12.5" fill="#fff"/><circle cx="229" cy="182" r="6.5" fill="#3A2E26" stroke="none"/><circle cx="231" cy="180" r="2" fill="#fff" stroke="none"/><path d="M198 184 C196 200 190 212 188 218 Q200 226 210 216" fill="none" stroke="#3A2E26" stroke-width="4.5"/><path d="M178 246 Q200 257 222 246" fill="none" stroke="#3A2E26" stroke-width="5"/></g></svg>